<svg width="13" height="13" viewBox="0 0 13 13" fill="none" xmlns="http://www.w3.org/2000/svg">
<path d="M6.03107 1.76725C6.19215 1.33194 6.80785 1.33194 6.96893 1.76725L8.04076 4.66383C8.0914 4.80069 8.19931 4.9086 8.33617 4.95924L11.2327 6.03107C11.6681 6.19215 11.6681 6.80785 11.2327 6.96893L8.33617 8.04076C8.19931 8.0914 8.0914 8.19931 8.04076 8.33617L6.96893 11.2327C6.80785 11.6681 6.19215 11.6681 6.03107 11.2327L4.95924 8.33617C4.9086 8.19931 4.80069 8.0914 4.66383 8.04076L1.76725 6.96893C1.33194 6.80785 1.33194 6.19215 1.76725 6.03107L4.66383 4.95924C4.80069 4.9086 4.9086 4.80069 4.95924 4.66383L6.03107 1.76725Z" fill="#6AD8A9"/>
</svg>
