<svg width="24" height="24" viewBox="0 0 24 24" fill="none" xmlns="http://www.w3.org/2000/svg">
<path fill-rule="evenodd" clip-rule="evenodd" d="M11.9996 0.601562C12.5243 0.601562 12.9496 1.02689 12.9496 1.55156V2.54847C17.4378 2.99408 21.0071 6.56337 21.4527 11.0516H22.4496C22.9743 11.0516 23.3996 11.4769 23.3996 12.0016C23.3996 12.5262 22.9743 12.9516 22.4496 12.9516H21.4527C21.0071 17.4398 17.4378 21.009 12.9496 21.4547V22.4516C12.9496 22.9762 12.5243 23.4016 11.9996 23.4016C11.4749 23.4016 11.0496 22.9762 11.0496 22.4516V21.4547C6.56141 21.009 2.99213 17.4398 2.54652 12.9516H1.54961C1.02494 12.9516 0.599609 12.5262 0.599609 12.0016C0.599609 11.4769 1.02494 11.0516 1.54961 11.0516H2.54652C2.99213 6.56337 6.56141 2.99408 11.0496 2.54847V1.55156C11.0496 1.02689 11.4749 0.601562 11.9996 0.601562ZM19.5408 11.0516H18.6496C18.1249 11.0516 17.6996 11.4769 17.6996 12.0016C17.6996 12.5262 18.1249 12.9516 18.6496 12.9516H19.5408C19.1121 16.3893 16.3874 19.1141 12.9496 19.5428V18.6516C12.9496 18.1269 12.5243 17.7016 11.9996 17.7016C11.4749 17.7016 11.0496 18.1269 11.0496 18.6516V19.5428C7.61183 19.1141 4.88709 16.3893 4.45841 12.9516H5.34961C5.87428 12.9516 6.29961 12.5262 6.29961 12.0016C6.29961 11.4769 5.87428 11.0516 5.34961 11.0516H4.45841C4.88709 7.61378 7.61183 4.88905 11.0496 4.46036V5.35156C11.0496 5.87623 11.4749 6.30156 11.9996 6.30156C12.5243 6.30156 12.9496 5.87623 12.9496 5.35156V4.46036C16.3874 4.88905 19.1121 7.61378 19.5408 11.0516Z" fill="#D9DEE5"/>
</svg>
