<svg width="34" height="34" viewBox="0 0 34 34" fill="none" xmlns="http://www.w3.org/2000/svg">
<g clip-path="url(#clip0_7078_9484)">
<path d="M3.7332 5.56348H30.2668C31.1551 5.56348 31.875 6.28343 31.875 7.17168V26.8279C31.875 27.7162 31.1551 28.4361 30.2668 28.4361H3.7332C2.84495 28.4361 2.125 27.7162 2.125 26.8279V7.17168C2.125 6.28343 2.84495 5.56348 3.7332 5.56348Z" fill="#F2F4F7"/>
<path d="M11.3713 16.5787C12.7965 16.5787 13.9519 15.4233 13.9519 13.9981C13.9519 12.5729 12.7965 11.4175 11.3713 11.4175C9.94608 11.4175 8.7907 12.5729 8.7907 13.9981C8.7907 15.4233 9.94608 16.5787 11.3713 16.5787Z" fill="#AEB3BC"/>
<path d="M11.3713 17.7007C14.9022 17.7007 16.2605 20.1453 16.2605 21.2316C16.2605 22.3179 13.4088 22.5899 11.3713 22.5899C9.33385 22.5899 6.4821 22.3179 6.4821 21.2316C6.4821 20.0093 7.8404 17.7007 11.3713 17.7007Z" fill="#AEB3BC"/>
<path d="M26.9187 14.0933H19.1429C18.6873 14.0933 18.3167 13.7236 18.3167 13.2671C18.3167 12.8107 18.6873 12.4409 19.1429 12.4409H26.9187C27.3743 12.4409 27.7448 12.8107 27.7448 13.2671C27.7448 13.7236 27.3743 14.0933 26.9187 14.0933Z" fill="#AEB3BC"/>
<path d="M26.9187 17.8262H21.6461C21.1905 17.8262 20.8199 17.4565 20.8199 17C20.8199 16.5436 21.1905 16.1738 21.6461 16.1738H26.9187C27.3743 16.1738 27.7449 16.5436 27.7449 17C27.7449 17.4565 27.3743 17.8262 26.9187 17.8262Z" fill="#AEB3BC"/>
<path d="M26.9187 21.5596H21.6461C21.1905 21.5596 20.8199 21.1899 20.8199 20.7334C20.8199 20.277 21.1905 19.9072 21.6461 19.9072H26.9187C27.3743 19.9072 27.7449 20.277 27.7449 20.7334C27.7449 21.1899 27.3743 21.5596 26.9187 21.5596Z" fill="#AEB3BC"/>
</g>
<defs>
<clipPath id="clip0_7078_9484">
<rect width="34" height="34" fill="white"/>
</clipPath>
</defs>
</svg>
