<svg width="38" height="38" viewBox="0 0 38 38" fill="none" xmlns="http://www.w3.org/2000/svg">
<path d="M28.8296 28.9694C33.5489 24.3163 33.6026 16.7185 28.9495 11.9992C24.2964 7.27996 16.6986 7.22627 11.9794 11.8793C7.26007 16.5324 7.20638 24.1302 11.8594 28.8495C16.5125 33.5688 24.1103 33.6224 28.8296 28.9694Z" fill="white"/>
<path d="M27.4254 27.5452C31.3581 23.6677 31.4029 17.3362 27.5253 13.4035C23.6478 9.47072 17.3163 9.42598 13.3836 13.3035C9.45081 17.1811 9.40607 23.5126 13.2836 27.4453C17.1612 31.3781 23.4927 31.4228 27.4254 27.5452Z" fill="#F53434"/>
<path fill-rule="evenodd" clip-rule="evenodd" d="M15.5398 8.36892L9.17102 9.03104L8.41897 15.3898C9.22074 13.9552 10.2432 12.5998 11.4837 11.3767C12.7243 10.1535 14.094 9.15034 15.5398 8.36892Z" fill="#F53434"/>
</svg>
