<svg width="34" height="45" viewBox="0 0 34 45" fill="none" xmlns="http://www.w3.org/2000/svg">
<g filter="url(#filter0_f_2947_35445)">
<ellipse cx="17.0007" cy="40.0707" rx="5.66667" ry="2.0238" fill="black" fill-opacity="0.2"/>
</g>
<path d="M17 0.5C26.1127 0.5 33.5 7.88734 33.5 17C33.5 22.7963 30.5116 27.8952 25.9893 30.8389L25.5469 31.1172C24.0139 32.0473 22.4736 33.1227 21.3145 34.583L21.0879 34.8799L17.5645 39.6953V39.6963C17.5185 39.7594 17.4601 39.8148 17.3926 39.8594L17.3213 39.9004C17.2229 39.9497 17.1127 39.9756 17 39.9756C16.9152 39.9756 16.8319 39.9609 16.7539 39.9326L16.6787 39.9004C16.6048 39.8633 16.5392 39.8146 16.4854 39.7568L16.4355 39.6963V39.6953L12.9121 34.8799C11.8793 33.4683 10.4924 32.4053 9.06641 31.4971L8.45312 31.1172C3.68423 28.2236 0.500023 22.9833 0.5 17C0.5 7.88734 7.8873 0.5 17 0.5Z" fill="#2962FF" stroke="white"/>
<path d="M17.75 10.25C18.5784 10.25 19.25 10.9216 19.25 11.75V14.75H22.25C23.0784 14.75 23.75 15.4216 23.75 16.25V17.75C23.75 18.5784 23.0784 19.25 22.25 19.25H19.25V22.25C19.25 23.0784 18.5784 23.75 17.75 23.75H16.25C15.4216 23.75 14.75 23.0784 14.75 22.25V19.25H11.75C10.9216 19.25 10.25 18.5784 10.25 17.75V16.25C10.25 15.4216 10.9216 14.75 11.75 14.75H14.75V11.75C14.75 10.9216 15.4216 10.25 16.25 10.25H17.75Z" fill="white"/>
<defs>
<filter id="filter0_f_2947_35445" x="9.33398" y="36.0469" width="15.333" height="8.04688" filterUnits="userSpaceOnUse" color-interpolation-filters="sRGB">
<feFlood flood-opacity="0" result="BackgroundImageFix"/>
<feBlend mode="normal" in="SourceGraphic" in2="BackgroundImageFix" result="shape"/>
<feGaussianBlur stdDeviation="1" result="effect1_foregroundBlur_2947_35445"/>
</filter>
</defs>
</svg>
