<svg width="18" height="18" viewBox="0 0 18 18" fill="none" xmlns="http://www.w3.org/2000/svg">
<path d="M9.75 2.25C10.5784 2.25 11.25 2.92157 11.25 3.75V6.75H14.25C15.0784 6.75 15.75 7.42157 15.75 8.25V9.75C15.75 10.5784 15.0784 11.25 14.25 11.25H11.25V14.25C11.25 15.0784 10.5784 15.75 9.75 15.75H8.25C7.42157 15.75 6.75 15.0784 6.75 14.25V11.25H3.75C2.92157 11.25 2.25 10.5784 2.25 9.75V8.25C2.25 7.42157 2.92157 6.75 3.75 6.75H6.75V3.75C6.75 2.92157 7.42157 2.25 8.25 2.25H9.75Z" fill="white"/>
</svg>
