<svg width="34" height="45" viewBox="0 0 34 45" fill="none" xmlns="http://www.w3.org/2000/svg">
<g filter="url(#filter0_f_3001_35639)">
<ellipse cx="17.0007" cy="40.0707" rx="5.66667" ry="2.0238" fill="black" fill-opacity="0.2"/>
</g>
<path d="M17 0.5C26.1127 0.5 33.5 7.88734 33.5 17C33.5 22.7963 30.5116 27.8952 25.9893 30.8389L25.5469 31.1172C23.9118 32.1093 22.2683 33.2665 21.0879 34.8799L17.5645 39.6953V39.6963C17.5185 39.7594 17.4601 39.8148 17.3926 39.8594L17.3213 39.9004C17.2229 39.9497 17.1127 39.9756 17 39.9756C16.9152 39.9756 16.8319 39.9609 16.7539 39.9326L16.6787 39.9004C16.6048 39.8634 16.5392 39.8146 16.4854 39.7568L16.4355 39.6963V39.6953L12.9121 34.8799C11.7317 33.2665 10.0882 32.1093 8.45312 31.1172C3.68423 28.2236 0.500023 22.9833 0.5 17C0.5 7.88734 7.8873 0.5 17 0.5Z" fill="#AEB3BC" stroke="white"/>
<path d="M21 14.5C21.8702 14.5 22.7067 14.8242 23.3486 15.4053L23.4746 15.5254C24.0898 16.1406 24.4531 16.9611 24.4961 17.8262L24.5 18C24.5 18.8702 24.1758 19.7067 23.5947 20.3486L23.4746 20.4746C22.8183 21.1309 21.9284 21.5 21 21.5V22C21 23.1046 20.1046 24 19 24H13C11.8954 24 11 23.1046 11 22V13H21V14.5ZM14.5 16C14.2239 16 14 16.2239 14 16.5V20.5C14 20.7761 14.2239 21 14.5 21C14.7761 21 15 20.7761 15 20.5V16.5C15 16.2239 14.7761 16 14.5 16ZM17.5 16C17.2239 16 17 16.2239 17 16.5V20.5C17 20.7761 17.2239 21 17.5 21C17.7761 21 18 20.7761 18 20.5V16.5C18 16.2239 17.7761 16 17.5 16ZM21 19.5L21.1484 19.4922C21.4916 19.458 21.8144 19.3067 22.0605 19.0605L22.1602 18.9502C22.3789 18.6833 22.5 18.3479 22.5 18L22.4922 17.8516C22.458 17.5084 22.3067 17.1856 22.0605 16.9395L21.9502 16.8398C21.6833 16.6211 21.3479 16.5 21 16.5V19.5Z" fill="white"/>
<path d="M21 16C21.7956 16 22.5585 16.3163 23.1211 16.8789C23.6837 17.4415 24 18.2044 24 19C24 19.7956 23.6837 20.5585 23.1211 21.1211C22.5585 21.6837 21.7956 22 21 22V21C21.5304 21 22.039 20.7891 22.4141 20.4141C22.7891 20.039 23 19.5304 23 19C23 18.4696 22.7891 17.961 22.4141 17.5859C22.039 17.2109 21.5304 17 21 17V16Z" fill="white"/>
<path d="M14.5 9C15.4339 9 16.2681 9.42663 16.8184 10.0957C17.0352 10.0344 17.2635 10 17.5 10C18.426 10 19.232 10.5048 19.6641 11.2529C19.9028 11.0926 20.1908 11 20.5 11C21.3284 11 22 11.6716 22 12.5C22 13.3284 21.3284 14 20.5 14C20.1906 14 19.9029 13.9066 19.6641 13.7461C19.2321 14.4946 18.4263 15 17.5 15C16.9689 15 16.4772 14.8332 16.0723 14.5508C15.6146 14.8335 15.0774 15 14.5 15C13.5431 15 12.6929 14.5503 12.1436 13.8525C11.9483 13.9456 11.7308 14 11.5 14C10.6716 14 10 13.3284 10 12.5C10 11.6716 10.6716 11 11.5 11C11.5575 11 11.6141 11.0035 11.6699 11.0098C12.0792 9.83991 13.1904 9 14.5 9Z" fill="white"/>
<defs>
<filter id="filter0_f_3001_35639" x="9.33398" y="36.0469" width="15.333" height="8.04688" filterUnits="userSpaceOnUse" color-interpolation-filters="sRGB">
<feFlood flood-opacity="0" result="BackgroundImageFix"/>
<feBlend mode="normal" in="SourceGraphic" in2="BackgroundImageFix" result="shape"/>
<feGaussianBlur stdDeviation="1" result="effect1_foregroundBlur_3001_35639"/>
</filter>
</defs>
</svg>
