<svg width="16" height="16" viewBox="0 0 16 16" fill="none" xmlns="http://www.w3.org/2000/svg">
<g clip-path="url(#clip0_5238_7570)">
<path d="M8.58803 15.1746C8.38243 15.1746 8.20763 15.017 8.18963 14.8086C8.17083 14.5886 8.33403 14.395 8.55443 14.3758C9.28723 14.3134 9.99643 14.1266 10.6628 13.821C10.8632 13.7294 11.1008 13.817 11.1932 14.0182C11.2852 14.219 11.1972 14.4562 10.996 14.5486C10.2456 14.8926 9.44683 15.1026 8.62203 15.1734C8.61043 15.1742 8.59923 15.1746 8.58803 15.1746ZM7.04163 15.1106C7.02203 15.1106 7.00203 15.1094 6.98203 15.1062C6.14003 14.9806 5.35403 14.737 4.64683 14.3818C4.44923 14.2826 4.36963 14.0422 4.46883 13.845C4.56803 13.6474 4.80763 13.5674 5.00563 13.667C5.63683 13.9838 6.34163 14.2018 7.09963 14.315C7.31803 14.3478 7.46883 14.551 7.43643 14.7698C7.40683 14.9682 7.23603 15.111 7.04123 15.111L7.04163 15.1106ZM12.1552 13.783C12.0356 13.783 11.9172 13.7298 11.8384 13.6278C11.7032 13.453 11.7356 13.2018 11.91 13.0666C12.4916 12.617 12.988 12.0758 13.3856 11.4582C13.5048 11.2726 13.7524 11.2186 13.9384 11.3386C14.124 11.4582 14.1776 11.7054 14.058 11.8914C13.6112 12.5854 13.0532 13.1938 12.3992 13.6994C12.3264 13.7558 12.2404 13.783 12.1548 13.783H12.1552ZM3.53483 13.5694C3.44283 13.5694 3.35083 13.5378 3.27523 13.4734C2.64923 12.9386 2.12843 12.2946 1.72763 11.559C1.62163 11.365 1.69363 11.1222 1.88723 11.0166C2.08083 10.9102 2.32403 10.9822 2.42963 11.1762C2.78363 11.8258 3.24283 12.3938 3.79443 12.865C3.96243 13.0086 3.98243 13.261 3.83883 13.429C3.75963 13.5214 3.64763 13.5694 3.53483 13.5694ZM14.4068 10.685C14.3624 10.685 14.3168 10.6774 14.2724 10.6614C14.0644 10.587 13.9556 10.3586 14.03 10.1502C14.2756 9.4614 14.4 8.7378 14.4 7.9998C14.4 7.779 14.5792 7.5854 14.8 7.5854C15.0208 7.5854 15.2 7.7502 15.2 7.971V7.9994C15.2 8.8294 15.0596 9.6434 14.7832 10.4186C14.7248 10.5822 14.5708 10.6846 14.4064 10.6846L14.4068 10.685ZM1.49843 10.3314C1.32323 10.3314 1.16243 10.2154 1.11323 10.0386C0.929626 9.3782 0.836426 8.6922 0.836426 7.9994C0.836426 7.8678 0.839626 7.7362 0.846426 7.605C0.857626 7.3842 1.04643 7.2106 1.26643 7.2262C1.48683 7.2374 1.65683 7.4258 1.64523 7.6462C1.63923 7.7638 1.63643 7.8814 1.63643 7.9994C1.63643 8.6198 1.71963 9.2338 1.88403 9.8242C1.94323 10.037 1.81883 10.2574 1.60603 10.3166C1.57003 10.3266 1.53403 10.3314 1.49843 10.3314ZM14.6188 6.833C14.4376 6.833 14.2732 6.709 14.23 6.525C14.0616 5.811 13.7728 5.1362 13.3724 4.5194C13.252 4.3342 13.3048 4.0862 13.49 3.9662C13.6752 3.8458 13.9232 3.899 14.0432 4.0838C14.4936 4.7778 14.8184 5.5374 15.0084 6.341C15.0592 6.5562 14.926 6.7714 14.7112 6.8222C14.68 6.8298 14.6492 6.833 14.6188 6.833ZM1.49163 6.4946C1.45683 6.4946 1.42123 6.4898 1.38563 6.4802C1.17243 6.4218 1.04723 6.2018 1.10563 5.9886C1.32763 5.1794 1.67803 4.431 2.14763 3.7654C2.27523 3.5846 2.52483 3.5414 2.70523 3.669C2.88603 3.7962 2.92923 4.0458 2.80163 4.2266C2.38523 4.8166 2.07443 5.4806 1.87723 6.2002C1.82843 6.3778 1.66763 6.4946 1.49163 6.4946ZM12.722 3.5062C12.622 3.5062 12.522 3.469 12.4444 3.3942C11.9144 2.883 11.3076 2.4702 10.6396 2.1674C10.4384 2.0762 10.3492 1.839 10.4404 1.6378C10.5312 1.4366 10.7684 1.3466 10.97 1.4386C11.7208 1.7794 12.404 2.2434 12.9996 2.8182C13.1584 2.9718 13.1632 3.225 13.0096 3.3838C12.9312 3.4654 12.8268 3.5062 12.722 3.5062ZM3.51443 3.2482C3.40203 3.2482 3.29043 3.201 3.21123 3.1094C3.06683 2.9422 3.08563 2.6894 3.25283 2.5454C3.86963 2.0134 4.58283 1.5954 5.37323 1.3022C5.57963 1.225 5.81043 1.331 5.88723 1.5382C5.96403 1.7454 5.85843 1.9754 5.65123 2.0522C4.95083 2.3122 4.31963 2.6818 3.77523 3.1514C3.69963 3.2166 3.60683 3.2482 3.51443 3.2482ZM9.32923 1.7294C9.30363 1.7294 9.27723 1.727 9.25123 1.7218C8.84243 1.6406 8.42163 1.5998 8.00043 1.5998C7.69523 1.6122 7.37843 1.6422 7.07403 1.6886C6.85683 1.7234 6.65163 1.5722 6.61803 1.3534C6.58483 1.135 6.73483 0.931005 6.95323 0.897405C7.28683 0.846605 7.63403 0.813805 7.98443 0.799805H7.98963C8.47683 0.799805 8.94843 0.845805 9.40643 0.936605C9.62323 0.979405 9.76402 1.1902 9.72122 1.4066C9.68363 1.597 9.51643 1.7294 9.32923 1.7294Z" fill="white"/>
<path d="M6.16809 7.61072C6.61743 7.61072 6.98169 7.13614 6.98169 6.55072C6.98169 5.9653 6.61743 5.49072 6.16809 5.49072C5.71875 5.49072 5.35449 5.9653 5.35449 6.55072C5.35449 7.13614 5.71875 7.61072 6.16809 7.61072Z" fill="#6AD8A9"/>
<path d="M9.83215 7.61072C10.2815 7.61072 10.6458 7.13614 10.6458 6.55072C10.6458 5.9653 10.2815 5.49072 9.83215 5.49072C9.38282 5.49072 9.01855 5.9653 9.01855 6.55072C9.01855 7.13614 9.38282 7.61072 9.83215 7.61072Z" fill="#6AD8A9"/>
<path d="M10.2135 10.601H5.78586C5.57106 10.601 5.39746 10.427 5.39746 10.2126C5.39746 9.99822 5.57106 9.82422 5.78586 9.82422H10.2135C10.4283 9.82422 10.6019 9.99822 10.6019 10.2126C10.6019 10.427 10.4283 10.601 10.2135 10.601Z" fill="#6AD8A9"/>
</g>
<defs>
<clipPath id="clip0_5238_7570">
<rect width="16" height="16" fill="white"/>
</clipPath>
</defs>
</svg>
