<svg width="27" height="26" viewBox="0 0 27 26" fill="none" xmlns="http://www.w3.org/2000/svg">
<rect x="2.66699" y="2.16675" width="21.6667" height="21.6667" rx="10.8333" fill="#6AD8A9"/>
<rect x="9.70898" y="9.75" width="2.16667" height="2.16667" rx="1.08333" fill="#00373B"/>
<rect x="15.125" y="9.75" width="2.16667" height="2.16667" rx="1.08333" fill="#00373B"/>
<path d="M17.6231 14.0833C18.0384 14.0833 18.3822 14.4231 18.302 14.8305C18.2406 15.1423 18.1408 15.4478 18.0039 15.7416C17.7589 16.2674 17.3998 16.7451 16.9471 17.1475C16.4945 17.5499 15.957 17.869 15.3656 18.0868C14.7741 18.3046 14.1402 18.4167 13.5 18.4167C12.8598 18.4167 12.2259 18.3046 11.6344 18.0868C11.043 17.869 10.5055 17.5498 10.0529 17.1475C9.60017 16.7451 9.24108 16.2674 8.99609 15.7416C8.85918 15.4478 8.75941 15.1423 8.69802 14.8305C8.61778 14.4231 8.96165 14.0833 9.37692 14.0833C9.7922 14.0833 10.1191 14.4263 10.2338 14.8254C10.2734 14.963 10.324 15.0983 10.3855 15.2301C10.5549 15.5936 10.8032 15.924 11.1162 16.2022C11.4293 16.4805 11.8009 16.7012 12.2099 16.8518C12.6189 17.0024 13.0573 17.0799 13.5 17.0799C13.9427 17.0799 14.3811 17.0024 14.7901 16.8518C15.1991 16.7012 15.5707 16.4805 15.8838 16.2022C16.1968 15.924 16.4451 15.5936 16.6145 15.2301C16.676 15.0983 16.7266 14.963 16.7662 14.8254C16.8809 14.4263 17.2078 14.0833 17.6231 14.0833Z" fill="#00373B"/>
</svg>
