<svg width="34" height="45" viewBox="0 0 34 45" fill="none" xmlns="http://www.w3.org/2000/svg">
<g filter="url(#filter0_f_2981_35603)">
<ellipse cx="17.0007" cy="40.0707" rx="5.66667" ry="2.0238" fill="black" fill-opacity="0.2"/>
</g>
<path d="M17 0.5C26.1127 0.5 33.5 7.88734 33.5 17C33.5 22.7963 30.5116 27.8952 25.9893 30.8389L25.5469 31.1172C23.9118 32.1093 22.2683 33.2665 21.0879 34.8799L17.5645 39.6953V39.6963C17.5185 39.7594 17.4601 39.8148 17.3926 39.8594L17.3213 39.9004C17.2229 39.9497 17.1127 39.9756 17 39.9756C16.9152 39.9756 16.8319 39.9609 16.7539 39.9326L16.6787 39.9004C16.6048 39.8634 16.5392 39.8146 16.4854 39.7568L16.4355 39.6963V39.6953L12.9121 34.8799C11.7317 33.2665 10.0882 32.1093 8.45312 31.1172C3.68423 28.2236 0.500023 22.9833 0.5 17C0.5 7.88734 7.8873 0.5 17 0.5Z" fill="#2962FF" stroke="white"/>
<path d="M21.1553 13.502C22.8121 13.502 24.1552 14.8452 24.1553 16.502V20.75C24.1553 22.4069 22.8121 23.75 21.1553 23.75H12.125C10.4681 23.75 9.125 22.4069 9.125 20.75V16.502C9.12507 14.8452 10.4682 13.502 12.125 13.502H21.1553ZM13.5674 16.918C12.6242 16.918 11.8595 17.6829 11.8594 18.626C11.8594 19.5692 12.6241 20.3339 13.5674 20.334C14.5107 20.334 15.2754 19.5693 15.2754 18.626C15.2752 17.6828 14.5106 16.918 13.5674 16.918ZM19.7168 16.918C19.4025 16.918 19.1477 17.1731 19.1475 17.4873V18.0566H18.5762C18.2619 18.0567 18.0071 18.3118 18.0068 18.626C18.0069 18.9403 18.2619 19.1952 18.5762 19.1953H19.1475V19.7646C19.1475 20.0791 19.4024 20.334 19.7168 20.334C20.031 20.3337 20.2861 20.0789 20.2861 19.7646V19.1953H20.8535C21.1677 19.1951 21.4228 18.9402 21.4229 18.626C21.4226 18.3119 21.1676 18.0568 20.8535 18.0566H20.2861V17.4873C20.2859 17.1733 20.0308 16.9183 19.7168 16.918ZM17.9287 10.25C18.8774 10.25 19.6465 11.0191 19.6465 11.9678C19.6465 12.3471 19.3392 12.655 18.96 12.6553H14.3213C13.942 12.6551 13.6348 12.3471 13.6348 11.9678C13.6348 11.0191 14.4039 10.25 15.3525 10.25H17.9287Z" fill="white"/>
<defs>
<filter id="filter0_f_2981_35603" x="9.33398" y="36.0469" width="15.333" height="8.04688" filterUnits="userSpaceOnUse" color-interpolation-filters="sRGB">
<feFlood flood-opacity="0" result="BackgroundImageFix"/>
<feBlend mode="normal" in="SourceGraphic" in2="BackgroundImageFix" result="shape"/>
<feGaussianBlur stdDeviation="1" result="effect1_foregroundBlur_2981_35603"/>
</filter>
</defs>
</svg>
