<svg width="34" height="45" viewBox="0 0 34 45" fill="none" xmlns="http://www.w3.org/2000/svg">
<g filter="url(#filter0_f_2947_35443)">
<ellipse cx="17.0007" cy="40.0707" rx="5.66667" ry="2.0238" fill="black" fill-opacity="0.2"/>
</g>
<path d="M17 0.5C26.1127 0.5 33.5 7.88734 33.5 17C33.5 22.7963 30.5116 27.8952 25.9893 30.8389L25.5469 31.1172C24.0139 32.0473 22.4736 33.1227 21.3145 34.583L21.0879 34.8799L17.5645 39.6953V39.6963C17.5185 39.7594 17.4601 39.8148 17.3926 39.8594L17.3213 39.9004C17.2229 39.9497 17.1127 39.9756 17 39.9756C16.9152 39.9756 16.8319 39.9609 16.7539 39.9326L16.6787 39.9004C16.6048 39.8633 16.5392 39.8146 16.4854 39.7568L16.4355 39.6963V39.6953L12.9121 34.8799C11.8793 33.4683 10.4924 32.4053 9.06641 31.4971L8.45312 31.1172C3.68423 28.2236 0.500023 22.9833 0.5 17C0.5 7.88734 7.8873 0.5 17 0.5Z" fill="#2962FF" stroke="white"/>
<path d="M17 9.5C18.5919 9.5 19.9606 9.64393 21.041 9.82031C22.6944 10.0903 23.7499 11.5777 23.75 13.2529C23.75 14.3882 23.1182 15.3753 22.1875 15.8838C22.2239 16.5899 22.25 17.5555 22.25 18.875C22.25 19.6502 22.2418 20.3034 22.2275 20.8535C22.1821 22.609 20.6705 24.2229 18.9238 24.4043C18.3633 24.4625 17.7218 24.5 17 24.5C16.2724 24.5 15.6262 24.4623 15.0625 24.4033C13.3219 24.2213 11.8183 22.6157 11.7725 20.8662C11.758 20.3135 11.75 19.6562 11.75 18.875C11.75 17.5555 11.7741 16.5898 11.8105 15.8838C10.8807 15.375 10.25 14.3876 10.25 13.2529C10.2501 11.5777 11.3056 10.0903 12.959 9.82031C14.0394 9.64393 15.4081 9.5 17 9.5ZM19.4658 17.6143C19.1889 17.3649 18.7622 17.3872 18.5127 17.6641L16.4043 20.0049C16.155 20.2818 16.1774 20.7085 16.4541 20.958C16.7311 21.2075 17.1588 21.1852 17.4082 20.9082L19.5156 18.5674C19.7649 18.2904 19.7426 17.8637 19.4658 17.6143ZM17.2158 14.6143C16.9388 14.3649 16.5122 14.3872 16.2627 14.6641L14.1543 17.0049C13.905 17.2818 13.9273 17.7086 14.2041 17.958C14.4811 18.2075 14.9088 18.1852 15.1582 17.9082L17.2656 15.5674C17.515 15.2904 17.4926 14.8637 17.2158 14.6143Z" fill="white"/>
<defs>
<filter id="filter0_f_2947_35443" x="9.33398" y="36.0469" width="15.333" height="8.04688" filterUnits="userSpaceOnUse" color-interpolation-filters="sRGB">
<feFlood flood-opacity="0" result="BackgroundImageFix"/>
<feBlend mode="normal" in="SourceGraphic" in2="BackgroundImageFix" result="shape"/>
<feGaussianBlur stdDeviation="1" result="effect1_foregroundBlur_2947_35443"/>
</filter>
</defs>
</svg>
