<svg width="34" height="45" viewBox="0 0 34 45" fill="none" xmlns="http://www.w3.org/2000/svg">
<g filter="url(#filter0_f_3001_35736)">
<ellipse cx="17.0007" cy="40.0707" rx="5.66667" ry="2.0238" fill="black" fill-opacity="0.2"/>
</g>
<path d="M17 0.5C26.1127 0.5 33.5 7.88734 33.5 17C33.5 22.7963 30.5116 27.8952 25.9893 30.8389L25.5469 31.1172C23.9118 32.1093 22.2683 33.2665 21.0879 34.8799L17.5645 39.6953V39.6963C17.5185 39.7594 17.4601 39.8148 17.3926 39.8594L17.3213 39.9004C17.2229 39.9497 17.1127 39.9756 17 39.9756C16.9152 39.9756 16.8319 39.9609 16.7539 39.9326L16.6787 39.9004C16.6048 39.8634 16.5392 39.8146 16.4854 39.7568L16.4355 39.6963V39.6953L12.9121 34.8799C11.7317 33.2665 10.0882 32.1093 8.45312 31.1172C3.68423 28.2236 0.500023 22.9833 0.5 17C0.5 7.88734 7.8873 0.5 17 0.5Z" fill="#AEB3BC" stroke="white"/>
<path d="M23.751 11.9981C24.3755 12.0868 24.8563 12.6235 24.8564 13.2725V21.3369C24.8564 22.0481 24.2795 22.625 23.5684 22.625H10.4307C9.71944 22.625 9.14258 22.0482 9.14258 21.3369V13.2725C9.14273 12.623 9.62383 12.0863 10.249 11.9981V19.8867C10.2492 20.5989 10.8253 21.1711 11.5322 21.1758C12.5297 21.1822 13.6289 21.2145 14.583 21.3701C15.5718 21.5315 16.2527 21.8041 16.5674 22.168C16.7236 22.3484 16.9755 22.4132 17.1992 22.3301C17.296 22.294 17.3797 22.2335 17.4424 22.1573C17.7609 21.7986 18.4377 21.5299 19.417 21.3701C20.3711 21.2145 21.4703 21.1822 22.4678 21.1758C23.1748 21.1711 23.751 20.598 23.751 19.8858V11.9981ZM12.0049 10.25C13.5247 10.2634 15.3679 10.359 16.4404 11.0352V20.751C15.3679 20.1875 13.5247 20.1079 12.0049 20.0967C11.6098 20.0938 11.2891 19.775 11.2891 19.3799V10.9629C11.2893 10.568 11.6099 10.2466 12.0049 10.25ZM22.0215 10.25C22.4163 10.2468 22.7361 10.5681 22.7363 10.9629V19.3799C22.7363 19.7748 22.4164 20.0936 22.0215 20.0967C20.5016 20.1078 18.6576 20.1874 17.585 20.751V11.0352C18.6576 10.3589 20.5016 10.2634 22.0215 10.25Z" fill="white"/>
<defs>
<filter id="filter0_f_3001_35736" x="9.33398" y="36.0469" width="15.333" height="8.04688" filterUnits="userSpaceOnUse" color-interpolation-filters="sRGB">
<feFlood flood-opacity="0" result="BackgroundImageFix"/>
<feBlend mode="normal" in="SourceGraphic" in2="BackgroundImageFix" result="shape"/>
<feGaussianBlur stdDeviation="1" result="effect1_foregroundBlur_3001_35736"/>
</filter>
</defs>
</svg>
