<svg width="18" height="18" viewBox="0 0 18 18" fill="none" xmlns="http://www.w3.org/2000/svg">
<path d="M6.0001 15.75L2.53581 16.3274C2.02819 16.412 1.58811 15.9719 1.67272 15.4643L2.2501 12L9.97275 4.27732L13.7169 8.03318L6.0001 15.75Z" fill="#D9DEE5"/>
<path d="M13.2804 2.03031L15.9698 4.71965C16.2627 5.01254 16.2627 5.48742 15.9698 5.78031L14.7804 6.9697L11.0392 3.21092L12.2198 2.03031C12.5127 1.73741 12.9875 1.73742 13.2804 2.03031Z" fill="#D9DEE5"/>
<path fill-rule="evenodd" clip-rule="evenodd" d="M9.9001 15.75C9.9001 15.4186 10.1687 15.15 10.5001 15.15H15.7501C16.0815 15.15 16.3501 15.4186 16.3501 15.75C16.3501 16.0813 16.0815 16.35 15.7501 16.35H10.5001C10.1687 16.35 9.9001 16.0813 9.9001 15.75Z" fill="#D9DEE5"/>
</svg>
