<svg width="18" height="18" viewBox="0 0 18 18" fill="none" xmlns="http://www.w3.org/2000/svg">
<path d="M15.751 3.99807C16.3755 4.08682 16.8563 4.62346 16.8564 5.27249V13.3369C16.8564 14.0481 16.2795 14.625 15.5684 14.625H2.43066C1.71944 14.625 1.14258 14.0482 1.14258 13.3369V5.27249C1.14273 4.623 1.62383 4.08625 2.24902 3.99807V11.8867C2.2492 12.5989 2.82529 13.1711 3.53223 13.1758C4.5297 13.1822 5.62892 13.2145 6.58301 13.3701C7.57179 13.5315 8.25275 13.8041 8.56738 14.168C8.72363 14.3484 8.97545 14.4132 9.19922 14.3301C9.29603 14.294 9.37966 14.2335 9.44238 14.1573C9.76095 13.7986 10.4377 13.5299 11.417 13.3701C12.3711 13.2145 13.4703 13.1822 14.4678 13.1758C15.1748 13.1711 15.751 12.598 15.751 11.8858V3.99807ZM4.00488 2.25003C5.52467 2.26341 7.36786 2.35897 8.44043 3.03518V12.751C7.36786 12.1875 5.52467 12.1079 4.00488 12.0967C3.60981 12.0938 3.28913 11.775 3.28906 11.3799V2.96292C3.28927 2.56797 3.6099 2.24655 4.00488 2.25003ZM14.0215 2.25003C14.4163 2.24677 14.7361 2.5681 14.7363 2.96292V11.3799C14.7363 11.7748 14.4164 12.0936 14.0215 12.0967C12.5016 12.1078 10.6576 12.1874 9.58496 12.751V3.03518C10.6576 2.35887 12.5016 2.26339 14.0215 2.25003Z" fill="white"/>
</svg>
