<svg width="27" height="26" viewBox="0 0 27 26" fill="none" xmlns="http://www.w3.org/2000/svg">
<g clip-path="url(#clip0_5545_3690)">
<path d="M4.83301 10.8333H22.1663V20.5833C22.1663 22.3782 20.7113 23.8333 18.9163 23.8333H8.08301C6.28808 23.8333 4.83301 22.3782 4.83301 20.5833V10.8333Z" fill="#6AD8A9"/>
<path d="M11.333 20.5834C11.333 19.3868 12.3031 18.4167 13.4997 18.4167C14.6963 18.4167 15.6663 19.3868 15.6663 20.5834V23.8334H11.333V20.5834Z" fill="#00373B"/>
<path d="M12.85 2.65425C13.2352 2.36536 13.7648 2.36536 14.15 2.65425L23.9 9.96675C24.7329 10.5914 24.2911 11.9167 23.25 11.9167H3.75C2.7089 11.9167 2.26712 10.5914 3.1 9.96675L12.85 2.65425Z" fill="#6AD8A9"/>
</g>
<defs>
<clipPath id="clip0_5545_3690">
<rect width="26" height="26" fill="white" transform="translate(0.5)"/>
</clipPath>
</defs>
</svg>
