<svg width="18" height="18" viewBox="0 0 18 18" fill="none" xmlns="http://www.w3.org/2000/svg">
<path d="M8.8833 5.94165C8.8833 7.90912 7.4861 9.55027 5.62979 9.92699V15.5005C5.62979 15.9147 5.294 16.2505 4.87979 16.2505H4.75313C4.33892 16.2505 4.00313 15.9147 4.00313 15.5005V9.92691C2.14701 9.55005 0.75 7.90899 0.75 5.94165C0.75 3.6957 2.5707 1.875 4.81665 1.875C7.0626 1.875 8.8833 3.6957 8.8833 5.94165Z" fill="#FF5959"/>
<path d="M11.0778 2.14612C11.492 2.14612 11.8278 2.48191 11.8278 2.89612V5.94166C11.8278 6.01503 11.832 6.08744 11.8401 6.15864H12.9127V2.89617C12.9127 2.48196 13.2485 2.14617 13.6627 2.14617H13.7893C14.2036 2.14617 14.5393 2.48196 14.5393 2.89617V6.15864H15.6111C15.6192 6.08744 15.6233 6.01503 15.6233 5.94166V2.89612C15.6233 2.48191 15.9591 2.14612 16.3733 2.14612H16.5C16.9142 2.14612 17.25 2.48191 17.25 2.89612V5.94166C17.25 7.60805 16.0935 8.63264 14.5393 8.99998V15.4939C14.5393 15.9081 14.2036 16.2439 13.7893 16.2439H13.6627C13.2485 16.2439 12.9127 15.9081 12.9127 15.4939V9.00019C11.3581 8.63318 10.2011 7.60838 10.2011 5.94166V2.89612C10.2011 2.48191 10.5369 2.14612 10.9511 2.14612H11.0778Z" fill="#FF5959"/>
</svg>
