<svg width="41" height="41" viewBox="0 0 41 41" fill="none" xmlns="http://www.w3.org/2000/svg">
<path d="M8.12255 36.4109C10.0231 36.0479 11.8453 35.692 13.6675 35.3432C14.0305 35.2721 14.2868 35.2222 14.7566 35.208C15.1054 35.1938 15.8456 35.1795 15.7816 35.5568C15.6962 35.8629 15.5965 36.0693 14.9772 36.2543C13.3757 36.7241 11.7172 36.9519 10.0729 37.1868C8.62081 37.3932 7.5104 37.5285 6.21491 37.6352C5.60988 37.6851 5.36786 37.3861 5.43904 36.8309C5.50311 36.3326 5.56005 35.8201 5.71665 35.3432C6.27186 33.6207 6.86977 31.9195 7.45345 30.204C7.52463 29.9905 7.56734 29.8196 7.68835 29.5776C7.83783 29.2858 7.93036 29.0651 8.23644 29.1505C8.52828 29.2288 8.51404 29.6559 8.46422 29.8695C8.08696 31.6632 7.24703 35.3504 7.24703 35.5568C8.1795 34.9589 9.05502 34.425 9.90207 33.8413C15.7816 29.7484 21.3194 25.2712 25.7255 19.534C29.2134 14.9927 32.1033 10.1168 34.2387 4.79966C34.3668 4.48646 34.5234 4.18039 34.68 3.88855C34.8864 3.48994 35.0644 3.3191 35.2779 3.41164C35.6552 3.63942 35.584 3.94549 35.5484 4.19463C35.4844 4.69289 35.3135 5.18403 35.1498 5.66094C32.8934 12.0174 29.3059 17.5837 24.971 22.7016C20.5222 27.9547 15.084 31.9978 9.28279 35.5924C8.9696 35.7703 8.23644 36.2828 8.12255 36.4109Z" fill="white"/>
</svg>
