<svg width="14" height="15" viewBox="0 0 14 15" fill="none" xmlns="http://www.w3.org/2000/svg">
<g clip-path="url(#clip0_5514_621)">
<path d="M9.9751 1.7251H4.0251C2.4787 1.7251 1.2251 2.9787 1.2251 4.5251V10.4751C1.2251 12.0215 2.4787 13.2751 4.0251 13.2751H9.9751C11.5215 13.2751 12.7751 12.0215 12.7751 10.4751V4.5251C12.7751 2.9787 11.5215 1.7251 9.9751 1.7251Z" fill="#6AD8A9"/>
<path d="M6.33616 9.84008C6.17481 9.84008 6.01381 9.77883 5.89061 9.65563L3.79831 7.56333C3.55226 7.31728 3.55226 6.91828 3.79831 6.67223C4.04436 6.42653 4.44336 6.42653 4.68941 6.67223L6.33616 8.31933L9.31081 5.34468C9.55721 5.09898 9.95621 5.09898 10.2019 5.34468C10.448 5.59073 10.448 5.98973 10.2019 6.23578L6.78171 9.65563C6.65851 9.77848 6.49751 9.84008 6.33616 9.84008Z" fill="white"/>
</g>
<defs>
<clipPath id="clip0_5514_621">
<rect width="14" height="14" fill="white" transform="translate(0 0.5)"/>
</clipPath>
</defs>
</svg>
