<svg width="27" height="26" viewBox="0 0 27 26" fill="none" xmlns="http://www.w3.org/2000/svg">
<path d="M12.6572 2.12548C13.0908 1.58909 13.9086 1.58909 14.3422 2.12548L15.8184 3.9517C16.0878 4.28497 16.5283 4.42811 16.9422 4.31684L19.2099 3.70711C19.876 3.52802 20.5376 4.00871 20.5731 4.69752L20.694 7.04267C20.716 7.47064 20.9883 7.84539 21.3885 7.99862L23.5815 8.83827C24.2257 9.0849 24.4784 9.86266 24.1022 10.4408L22.8216 12.4091C22.5879 12.7683 22.5879 13.2315 22.8216 13.5907L24.1022 15.559C24.4784 16.1372 24.2257 16.9149 23.5815 17.1616L21.3885 18.0012C20.9883 18.1545 20.716 18.5292 20.694 18.9572L20.5731 21.3023C20.5376 21.9911 19.876 22.4718 19.2099 22.2927L16.9422 21.683C16.5283 21.5717 16.0878 21.7149 15.8184 22.0481L14.3422 23.8744C13.9086 24.4108 13.0908 24.4108 12.6572 23.8744L11.1809 22.0481C10.9115 21.7149 10.471 21.5717 10.0572 21.683L7.78943 22.2927C7.12336 22.4718 6.46175 21.9911 6.42625 21.3023L6.30537 18.9572C6.28331 18.5292 6.01104 18.1545 5.61083 18.0012L3.41781 17.1616C2.77369 16.9149 2.52097 16.1372 2.89712 15.559L4.17778 13.5907C4.41149 13.2315 4.41149 12.7683 4.17778 12.4091L2.89712 10.4408C2.52097 9.86266 2.77369 9.08489 3.41781 8.83827L5.61083 7.99862C6.01104 7.84539 6.28331 7.47064 6.30537 7.04267L6.42625 4.69752C6.46175 4.00871 7.12336 3.52802 7.78943 3.70711L10.0572 4.31684C10.471 4.42811 10.9115 4.28497 11.1809 3.9517L12.6572 2.12548Z" fill="#6AD8A9"/>
<path d="M16.7503 11.9167L13.3649 15.1667L10.792 12.4584" stroke="#00373B" stroke-width="2.16667" stroke-linecap="round" stroke-linejoin="round"/>
</svg>
