<svg width="18" height="18" viewBox="0 0 18 18" fill="none" xmlns="http://www.w3.org/2000/svg">
<path d="M13.1553 5.50195C14.8121 5.50195 16.1552 6.84516 16.1553 8.50195V12.75C16.1553 14.4069 14.8121 15.75 13.1553 15.75H4.125C2.46815 15.75 1.125 14.4069 1.125 12.75V8.50195C1.12507 6.84516 2.46819 5.50195 4.125 5.50195H13.1553ZM5.56738 8.91797C4.62423 8.91802 3.85954 9.68285 3.85938 10.626C3.85938 11.5692 4.62413 12.3339 5.56738 12.334C6.51068 12.334 7.27539 11.5693 7.27539 10.626C7.27523 9.68282 6.51058 8.91797 5.56738 8.91797ZM11.7168 8.91797C11.4025 8.91797 11.1477 9.17311 11.1475 9.4873V10.0566H10.5762C10.2619 10.0567 10.0071 10.3118 10.0068 10.626C10.0069 10.9403 10.2619 11.1952 10.5762 11.1953H11.1475V11.7646C11.1475 12.0791 11.4024 12.334 11.7168 12.334C12.031 12.3337 12.2861 12.0789 12.2861 11.7646V11.1953H12.8535C13.1677 11.1951 13.4228 10.9402 13.4229 10.626C13.4226 10.3119 13.1676 10.0568 12.8535 10.0566H12.2861V9.4873C12.2859 9.17331 12.0308 8.91829 11.7168 8.91797ZM9.92871 2.25C10.8774 2.25 11.6465 3.0191 11.6465 3.96777C11.6465 4.3471 11.3392 4.65503 10.96 4.65527H6.32129C5.94195 4.65511 5.63477 4.34715 5.63477 3.96777C5.63478 3.0191 6.40386 2.25 7.35254 2.25H9.92871Z" fill="#2962FF"/>
</svg>
