<svg width="18" height="18" viewBox="0 0 18 18" fill="none" xmlns="http://www.w3.org/2000/svg">
<path d="M9 1.5C10.5919 1.5 11.9606 1.64393 13.041 1.82031C14.6944 2.0903 15.7499 3.57768 15.75 5.25293C15.75 6.38819 15.1182 7.37528 14.1875 7.88379C14.2239 8.58987 14.25 9.55552 14.25 10.875C14.25 11.6502 14.2418 12.3034 14.2275 12.8535C14.1821 14.609 12.6705 16.2229 10.9238 16.4043C10.3633 16.4625 9.7218 16.5 9 16.5C8.27239 16.5 7.62624 16.4623 7.0625 16.4033C5.32188 16.2213 3.81832 14.6157 3.77246 12.8662C3.75799 12.3135 3.75 11.6562 3.75 10.875C3.75 9.55549 3.77407 8.58981 3.81055 7.88379C2.88071 7.37504 2.25 6.38758 2.25 5.25293C2.25013 3.57768 3.30564 2.0903 4.95898 1.82031C6.03944 1.64393 7.40807 1.5 9 1.5ZM11.4658 9.61426C11.1889 9.36488 10.7622 9.38724 10.5127 9.66406L8.4043 12.0049C8.15498 12.2818 8.17736 12.7085 8.4541 12.958C8.73114 13.2075 9.15876 13.1852 9.4082 12.9082L11.5156 10.5674C11.7649 10.2904 11.7426 9.86371 11.4658 9.61426ZM9.21582 6.61426C8.93884 6.36486 8.51216 6.38719 8.2627 6.66406L6.1543 9.00488C5.90502 9.28184 5.92734 9.70856 6.2041 9.95801C6.48114 10.2075 6.90876 10.1852 7.1582 9.9082L9.26562 7.56738C9.51496 7.29044 9.49258 6.86373 9.21582 6.61426Z" fill="white"/>
</svg>
