<svg width="34" height="45" viewBox="0 0 34 45" fill="none" xmlns="http://www.w3.org/2000/svg">
<g filter="url(#filter0_f_3001_35638)">
<ellipse cx="17.0007" cy="40.0707" rx="5.66667" ry="2.0238" fill="black" fill-opacity="0.2"/>
</g>
<path d="M17 0.5C26.1127 0.5 33.5 7.88734 33.5 17C33.5 22.7963 30.5116 27.8952 25.9893 30.8389L25.5469 31.1172C23.9118 32.1093 22.2683 33.2665 21.0879 34.8799L17.5645 39.6953V39.6963C17.5185 39.7594 17.4601 39.8148 17.3926 39.8594L17.3213 39.9004C17.2229 39.9497 17.1127 39.9756 17 39.9756C16.9152 39.9756 16.8319 39.9609 16.7539 39.9326L16.6787 39.9004C16.6048 39.8634 16.5392 39.8146 16.4854 39.7568L16.4355 39.6963V39.6953L12.9121 34.8799C11.7317 33.2665 10.0882 32.1093 8.45312 31.1172C3.68423 28.2236 0.500023 22.9833 0.5 17C0.5 7.88734 7.8873 0.5 17 0.5Z" fill="#AEB3BC" stroke="white"/>
<path d="M16.8833 13.9416C16.8833 15.9091 15.4861 17.5503 13.6298 17.927V23.5005C13.6298 23.9147 13.294 24.2505 12.8798 24.2505H12.7531C12.3389 24.2505 12.0031 23.9147 12.0031 23.5005V17.9269C10.147 17.55 8.75 15.909 8.75 13.9416C8.75 11.6957 10.5707 9.875 12.8166 9.875C15.0626 9.875 16.8833 11.6957 16.8833 13.9416Z" fill="white"/>
<path d="M19.0778 10.1461C19.492 10.1461 19.8278 10.4819 19.8278 10.8961V13.9417C19.8278 14.015 19.832 14.0874 19.8401 14.1586H20.9127V10.8962C20.9127 10.482 21.2485 10.1462 21.6627 10.1462H21.7893C22.2036 10.1462 22.5393 10.482 22.5393 10.8962V14.1586H23.6111C23.6192 14.0874 23.6233 14.015 23.6233 13.9417V10.8961C23.6233 10.4819 23.9591 10.1461 24.3733 10.1461H24.5C24.9142 10.1461 25.25 10.4819 25.25 10.8961V13.9417C25.25 15.6081 24.0935 16.6326 22.5393 17V23.4939C22.5393 23.9081 22.2036 24.2439 21.7893 24.2439H21.6627C21.2485 24.2439 20.9127 23.9081 20.9127 23.4939V17.0002C19.3581 16.6332 18.2011 15.6084 18.2011 13.9417V10.8961C18.2011 10.4819 18.5369 10.1461 18.9511 10.1461H19.0778Z" fill="white"/>
<defs>
<filter id="filter0_f_3001_35638" x="9.33398" y="36.0469" width="15.333" height="8.04688" filterUnits="userSpaceOnUse" color-interpolation-filters="sRGB">
<feFlood flood-opacity="0" result="BackgroundImageFix"/>
<feBlend mode="normal" in="SourceGraphic" in2="BackgroundImageFix" result="shape"/>
<feGaussianBlur stdDeviation="1" result="effect1_foregroundBlur_3001_35638"/>
</filter>
</defs>
</svg>
