<svg width="18" height="18" viewBox="0 0 18 18" fill="none" xmlns="http://www.w3.org/2000/svg">
<path d="M13 6.5C13.8702 6.5 14.7067 6.82417 15.3486 7.40527L15.4746 7.52539C16.0898 8.1406 16.4531 8.9611 16.4961 9.82617L16.5 10C16.5 10.8702 16.1758 11.7067 15.5947 12.3486L15.4746 12.4746C14.8183 13.1309 13.9284 13.5 13 13.5V14C13 15.1046 12.1046 16 11 16H5C3.89543 16 3 15.1046 3 14V5H13V6.5ZM6.5 8C6.22386 8 6 8.22386 6 8.5V12.5C6 12.7761 6.22386 13 6.5 13C6.77614 13 7 12.7761 7 12.5V8.5C7 8.22386 6.77614 8 6.5 8ZM9.5 8C9.22386 8 9 8.22386 9 8.5V12.5C9 12.7761 9.22386 13 9.5 13C9.77614 13 10 12.7761 10 12.5V8.5C10 8.22386 9.77614 8 9.5 8ZM13 11.5L13.1484 11.4922C13.4916 11.458 13.8144 11.3067 14.0605 11.0605L14.1602 10.9502C14.3789 10.6833 14.5 10.3479 14.5 10L14.4922 9.85156C14.458 9.50839 14.3067 9.18561 14.0605 8.93945L13.9502 8.83984C13.6833 8.62114 13.3479 8.5 13 8.5V11.5Z" fill="white"/>
<path d="M13 8C13.7956 8 14.5585 8.3163 15.1211 8.87891C15.6837 9.44152 16 10.2044 16 11C16 11.7956 15.6837 12.5585 15.1211 13.1211C14.5585 13.6837 13.7956 14 13 14V13C13.5304 13 14.039 12.7891 14.4141 12.4141C14.7891 12.039 15 11.5304 15 11C15 10.4696 14.7891 9.96101 14.4141 9.58594C14.039 9.21087 13.5304 9 13 9V8Z" fill="white"/>
<path d="M6.5 1C7.43386 1 8.26815 1.42663 8.81836 2.0957C9.03518 2.03435 9.26354 2 9.5 2C10.426 2 11.232 2.50482 11.6641 3.25293C11.9028 3.09258 12.1908 3 12.5 3C13.3284 3 14 3.67157 14 4.5C14 5.32843 13.3284 6 12.5 6C12.1906 6 11.9029 5.90663 11.6641 5.74609C11.2321 6.49461 10.4263 7 9.5 7C8.96886 7 8.4772 6.83322 8.07227 6.55078C7.61462 6.83347 7.07741 7 6.5 7C5.54306 7 4.69286 6.5503 4.14355 5.85254C3.94826 5.94563 3.73076 6 3.5 6C2.67157 6 2 5.32843 2 4.5C2 3.67157 2.67157 3 3.5 3C3.55746 3 3.61414 3.00348 3.66992 3.00977C4.07922 1.83991 5.19044 1 6.5 1Z" fill="white"/>
</svg>
