<svg width="16" height="16" viewBox="0 0 16 16" fill="none" xmlns="http://www.w3.org/2000/svg">
<g clip-path="url(#clip0_5783_29256)">
<path d="M14.6249 6.4244L10.7321 2.5316C9.78566 1.5852 8.47846 1 7.03446 1C4.14646 1 1.80566 3.3412 1.80566 6.2288V9.0876H1.80926V9.0884C1.80926 9.7564 2.33766 10.2984 2.98926 10.2984C3.59766 10.2984 4.09246 9.8244 4.15646 9.218V9.6988C4.15646 10.3668 4.68486 10.9088 5.33646 10.9088C5.94486 10.9088 6.43966 10.4348 6.50366 9.8284V9.9024C6.50366 10.5704 7.03206 11.1124 7.68366 11.1124C8.29206 11.1124 8.78686 10.6384 8.85086 10.032V14.5944C8.85086 15.2604 9.37886 15.8004 10.0305 15.8004C10.6821 15.8004 11.2101 15.2604 11.2101 14.5944V14.5932V9.088V7.0392L12.8461 8.2032C13.3373 8.6944 14.1337 8.6944 14.6253 8.2032C15.1169 7.712 15.1165 6.9156 14.6253 6.424L14.6249 6.4244Z" fill="#FFCCA8"/>
</g>
<defs>
<clipPath id="clip0_5783_29256">
<rect width="16" height="16" fill="white"/>
</clipPath>
</defs>
</svg>
