<svg width="16" height="16" viewBox="0 0 16 16" fill="none" xmlns="http://www.w3.org/2000/svg">
<g clip-path="url(#clip0_5240_13940)">
<path d="M13.1848 9.38161L10.9511 8L13.1848 6.61839C13.7902 6.24353 13.9772 5.44888 13.6031 4.8435C13.229 4.23812 12.4336 4.05106 11.8282 4.42519L9.78969 5.68602V3.28955C9.78969 2.57739 9.2123 2 8.50013 2C7.78797 2 7.21058 2.57739 7.21058 3.28955V5.68602L5.17204 4.42519C4.56666 4.05033 3.77201 4.23812 3.39715 4.8435C3.02229 5.44888 3.21009 6.24353 3.81546 6.61839L6.04917 8L3.81546 9.38161C3.21009 9.75648 3.02303 10.5511 3.39715 11.1565C3.77128 11.7619 4.56666 11.9489 5.17204 11.5748L7.21058 10.314V12.7104C7.21058 13.4226 7.78797 14 8.50013 14C9.2123 14 9.78969 13.4226 9.78969 12.7104V10.314L11.8282 11.5748C12.4336 11.9497 13.2283 11.7619 13.6031 11.1565C13.978 10.5511 13.7909 9.75648 13.1848 9.38161Z" fill="#6AD8A9"/>
</g>
<defs>
<clipPath id="clip0_5240_13940">
<rect width="16" height="16" fill="white"/>
</clipPath>
</defs>
</svg>
