<svg width="52" height="52" viewBox="0 0 52 52" fill="none" xmlns="http://www.w3.org/2000/svg">
<path d="M26 4.33301C37.9662 4.33301 47.667 14.0338 47.667 26C47.667 37.9662 37.9662 47.667 26 47.667C14.0338 47.667 4.33301 37.9662 4.33301 26C4.33301 14.0338 14.0338 4.33301 26 4.33301ZM34.085 17.915C33.5365 17.3667 32.648 17.3666 32.0996 17.915L26 24.0146L19.8994 17.915C19.351 17.3666 18.4625 17.3666 17.9141 17.915C17.3656 18.4635 17.3656 19.352 17.9141 19.9004L24.0137 26.001L17.9141 32.1006C17.3657 32.649 17.3657 33.5375 17.9141 34.0859C18.4625 34.6344 19.351 34.6344 19.8994 34.0859L26 27.9863L32.0996 34.0859C32.648 34.6344 33.5365 34.6344 34.085 34.0859C34.6334 33.5375 34.6334 32.649 34.085 32.1006L27.9854 26.001L34.085 19.9004C34.6334 19.352 34.6334 18.4635 34.085 17.915Z" fill="#D9DEE5"/>
</svg>
