<svg width="16" height="16" viewBox="0 0 16 16" fill="none" xmlns="http://www.w3.org/2000/svg">
<g clip-path="url(#clip0_5069_36411)">
<path d="M10.2403 12.8506C10.2403 14.0878 9.23745 15.0906 8.00025 15.0906C6.76305 15.0906 5.76025 14.0878 5.76025 12.8506H10.2403Z" fill="#FFC107"/>
<path d="M6.64941 2.25998C6.64941 1.51398 7.25421 0.90918 8.00021 0.90918C8.74621 0.90918 9.35101 1.51398 9.35101 2.25998H6.64981H6.64941Z" fill="#FFC107"/>
<path d="M2.44173 7.5291C2.44173 4.3367 5.13293 1.7731 8.37013 1.9827C11.3245 2.1739 13.5585 4.7591 13.5585 7.7195V10.1511L14.5041 11.7887C14.7765 12.2607 14.4361 12.8507 13.8909 12.8507H2.10893C1.56413 12.8507 1.22333 12.2607 1.49573 11.7887L2.44133 10.1511L2.44173 7.5291Z" fill="#FFC107"/>
</g>
<defs>
<clipPath id="clip0_5069_36411">
<rect width="16" height="16" fill="white"/>
</clipPath>
</defs>
</svg>
