<svg width="34" height="34" viewBox="0 0 34 34" fill="none" xmlns="http://www.w3.org/2000/svg">
<g clip-path="url(#clip0_5295_5699)">
<path d="M3.7332 5.56323H30.2668C31.1551 5.56323 31.875 6.28318 31.875 7.17143V26.8277C31.875 27.7159 31.1551 28.4359 30.2668 28.4359H3.7332C2.84495 28.4359 2.125 27.7159 2.125 26.8277V7.17143C2.125 6.28318 2.84495 5.56323 3.7332 5.56323Z" fill="#D2F1E4"/>
<path d="M11.3711 16.5784C12.7964 16.5784 13.9517 15.423 13.9517 13.9978C13.9517 12.5725 12.7964 11.4172 11.3711 11.4172C9.9459 11.4172 8.79053 12.5725 8.79053 13.9978C8.79053 15.423 9.9459 16.5784 11.3711 16.5784Z" fill="#6AD8A9"/>
<path d="M11.3711 17.7004C14.902 17.7004 16.2603 20.145 16.2603 21.2313C16.2603 22.3176 13.4086 22.5896 11.3711 22.5896C9.33368 22.5896 6.48193 22.3176 6.48193 21.2313C6.48193 20.009 7.84023 17.7004 11.3711 17.7004Z" fill="#6AD8A9"/>
<path d="M26.9184 14.093H19.1426C18.687 14.093 18.3164 13.7232 18.3164 13.2668C18.3164 12.8103 18.687 12.4406 19.1426 12.4406H26.9184C27.374 12.4406 27.7446 12.8103 27.7446 13.2668C27.7446 13.7232 27.374 14.093 26.9184 14.093Z" fill="#6AD8A9"/>
<path d="M26.9186 17.8262H21.646C21.1904 17.8262 20.8198 17.4564 20.8198 17C20.8198 16.5435 21.1904 16.1738 21.646 16.1738H26.9186C27.3742 16.1738 27.7448 16.5435 27.7448 17C27.7448 17.4564 27.3742 17.8262 26.9186 17.8262Z" fill="#6AD8A9"/>
<path d="M26.9186 21.5594H21.646C21.1904 21.5594 20.8198 21.1896 20.8198 20.7332C20.8198 20.2767 21.1904 19.907 21.646 19.907H26.9186C27.3742 19.907 27.7448 20.2767 27.7448 20.7332C27.7448 21.1896 27.3742 21.5594 26.9186 21.5594Z" fill="#6AD8A9"/>
</g>
<defs>
<clipPath id="clip0_5295_5699">
<rect width="34" height="34" fill="white"/>
</clipPath>
</defs>
</svg>
