<svg width="18" height="18" viewBox="0 0 18 18" fill="none" xmlns="http://www.w3.org/2000/svg">
<path d="M8.88379 5.94165C8.88379 7.90912 7.48659 9.55027 5.63028 9.92699V15.5005C5.63028 15.9147 5.29449 16.2505 4.88028 16.2505H4.75362C4.3394 16.2505 4.00362 15.9147 4.00362 15.5005V9.92691C2.1475 9.55005 0.750488 7.90899 0.750488 5.94165C0.750488 3.6957 2.57119 1.875 4.81714 1.875C7.06308 1.875 8.88379 3.6957 8.88379 5.94165Z" fill="white"/>
<path d="M11.0783 2.14612C11.4925 2.14612 11.8283 2.48191 11.8283 2.89612V5.94166C11.8283 6.01503 11.8324 6.08744 11.8406 6.15864H12.9132V2.89617C12.9132 2.48196 13.249 2.14617 13.6632 2.14617H13.7898C14.204 2.14617 14.5398 2.48196 14.5398 2.89617V6.15864H15.6116C15.6197 6.08744 15.6238 6.01503 15.6238 5.94166V2.89612C15.6238 2.48191 15.9596 2.14612 16.3738 2.14612H16.5005C16.9147 2.14612 17.2505 2.48191 17.2505 2.89612V5.94166C17.2505 7.60805 16.094 8.63264 14.5398 8.99998V15.4939C14.5398 15.9081 14.204 16.2439 13.7898 16.2439H13.6632C13.249 16.2439 12.9132 15.9081 12.9132 15.4939V9.00019C11.3586 8.63318 10.2016 7.60838 10.2016 5.94166V2.89612C10.2016 2.48191 10.5374 2.14612 10.9516 2.14612H11.0783Z" fill="white"/>
</svg>
