<svg width="18" height="19" viewBox="0 0 18 19" fill="none" xmlns="http://www.w3.org/2000/svg">
<path d="M5.99998 16.2518L2.53569 16.8292C2.02807 16.9138 1.58799 16.4737 1.67259 15.9661L2.24997 12.5018L9.97263 4.77918L13.7168 8.53504L5.99998 16.2518Z" fill="#D2F1E4"/>
<path d="M13.2803 2.53217L15.9696 5.22151C16.2625 5.5144 16.2625 5.98928 15.9696 6.28217L14.7802 7.47157L11.039 3.71278L12.2196 2.53217C12.5125 2.23928 12.9874 2.23928 13.2803 2.53217Z" fill="#D2F1E4"/>
<path fill-rule="evenodd" clip-rule="evenodd" d="M9.89998 16.2518C9.89998 15.9205 10.1686 15.6518 10.5 15.6518H15.75C16.0813 15.6518 16.35 15.9205 16.35 16.2518C16.35 16.5832 16.0813 16.8518 15.75 16.8518H10.5C10.1686 16.8518 9.89998 16.5832 9.89998 16.2518Z" fill="#D2F1E4"/>
</svg>
